<?xml version="1.0" encoding="UTF-8"?><svg id="a" xmlns="http://www.w3.org/2000/svg" viewBox="0 0 512 512"><defs><style>.b{fill:#d84b5a;}</style></defs><path class="b" d="M262.49,59.97s.89-17.56,1.6-28.39c-51.69,0-125.6,32.33-165.88,78.05,84.86-3.43,145.05,15.77,161.23,24.25,0-11.11,.71-30.88,.71-30.88,61.2,13.26,95.08,69.15,98.6,142.79,1.99,41.29-13.37,84.49-34.84,110.28-20.53,24.6-51.05,37.63-86.12,36.85-47.66-1-107.03-38.04-107.03-110.28-1.42-79.83,49.04-108.27,69.59-119.04-68.08-15.73-143.24,43.87-143.24,141.83,0,103.47,86.48,174.45,181.06,174.45,151.5,0,215.78-114.08,215.78-209.98S380.77,66.76,262.49,59.97Z"/></svg>